<?xml version="1.0" encoding="utf-8"?>
<svg version="1.1" xmlns:xlink="http://www.w3.org/1999/xlink" width="24px" height="24px" xmlns="http://www.w3.org/2000/svg">
  <g transform="matrix(1 0 0 1 -1174 -727 )">
    <path d="M 1186 727  C 1192.72 727  1198 732.28  1198 739  C 1198 745.72  1192.72 751  1186 751  C 1179.28 751  1174 745.72  1174 739  C 1174 732.28  1179.28 727  1186 727  Z " fill-rule="nonzero" fill="#0721eb" stroke="none" fill-opacity="0.21176470588235294" />
    <path d="M 1186 727.5  C 1192.44 727.5  1197.5 732.56  1197.5 739  C 1197.5 745.44  1192.44 750.5  1186 750.5  C 1179.56 750.5  1174.5 745.44  1174.5 739  C 1174.5 732.56  1179.56 727.5  1186 727.5  Z " stroke-width="1" stroke="#797979" fill="none" />
  </g>
</svg>