<?xml version="1.0" encoding="utf-8"?>
<svg version="1.1" xmlns:xlink="http://www.w3.org/1999/xlink" width="18px" height="18px" viewBox="141 949.5  18 18" xmlns="http://www.w3.org/2000/svg">
  <path d="M 142.5 951.5  A 0.5 0.5 0 0 1 143 951 L 157 951  A 0.5 0.5 0 0 1 157.5 951.5 L 157.5 965.5  A 0.5 0.5 0 0 1 157 966 L 143 966  A 0.5 0.5 0 0 1 142.5 965.5 L 142.5 951.5  Z " fill-rule="nonzero" fill="#ffffff" stroke="none" fill-opacity="0" />
  <path d="M 142 951.5  A 1 1 0 0 1 143 950.5 L 157 950.5  A 1 1 0 0 1 158 951.5 L 158 965.5  A 1 1 0 0 1 157 966.5 L 143 966.5  A 1 1 0 0 1 142 965.5 L 142 951.5  Z " stroke-width="2" stroke="#797979" fill="none" />
</svg>