<?xml version="1.0" encoding="utf-8"?>
<svg version="1.1" xmlns:xlink="http://www.w3.org/1999/xlink" width="18px" height="18px" viewBox="141 983.5  18 18" xmlns="http://www.w3.org/2000/svg">
  <path d="M 142.5 985.5  A 0.5 0.5 0 0 1 143 985 L 157 985  A 0.5 0.5 0 0 1 157.5 985.5 L 157.5 999.5  A 0.5 0.5 0 0 1 157 1000 L 143 1000  A 0.5 0.5 0 0 1 142.5 999.5 L 142.5 985.5  Z " fill-rule="nonzero" fill="#ffffff" stroke="none" fill-opacity="0" />
  <path d="M 142 985.5  A 1 1 0 0 1 143 984.5 L 157 984.5  A 1 1 0 0 1 158 985.5 L 158 999.5  A 1 1 0 0 1 157 1000.5 L 143 1000.5  A 1 1 0 0 1 142 999.5 L 142 985.5  Z " stroke-width="2" stroke="#797979" fill="none" />
</svg>