<?xml version="1.0" encoding="utf-8"?>
<svg version="1.1" xmlns:xlink="http://www.w3.org/1999/xlink" width="18px" height="18px" viewBox="342 949.5  18 18" xmlns="http://www.w3.org/2000/svg">
  <path d="M 343.5 951.5  A 0.5 0.5 0 0 1 344 951 L 358 951  A 0.5 0.5 0 0 1 358.5 951.5 L 358.5 965.5  A 0.5 0.5 0 0 1 358 966 L 344 966  A 0.5 0.5 0 0 1 343.5 965.5 L 343.5 951.5  Z " fill-rule="nonzero" fill="#ffffff" stroke="none" fill-opacity="0" />
  <path d="M 343 951.5  A 1 1 0 0 1 344 950.5 L 358 950.5  A 1 1 0 0 1 359 951.5 L 359 965.5  A 1 1 0 0 1 358 966.5 L 344 966.5  A 1 1 0 0 1 343 965.5 L 343 951.5  Z " stroke-width="2" stroke="#797979" fill="none" />
</svg>