<?xml version="1.0" encoding="utf-8"?>
<svg version="1.1" xmlns:xlink="http://www.w3.org/1999/xlink" width="18px" height="18px" viewBox="342 983.5  18 18" xmlns="http://www.w3.org/2000/svg">
  <path d="M 343.5 985.5  A 0.5 0.5 0 0 1 344 985 L 358 985  A 0.5 0.5 0 0 1 358.5 985.5 L 358.5 999.5  A 0.5 0.5 0 0 1 358 1000 L 344 1000  A 0.5 0.5 0 0 1 343.5 999.5 L 343.5 985.5  Z " fill-rule="nonzero" fill="#ffffff" stroke="none" fill-opacity="0" />
  <path d="M 343 985.5  A 1 1 0 0 1 344 984.5 L 358 984.5  A 1 1 0 0 1 359 985.5 L 359 999.5  A 1 1 0 0 1 358 1000.5 L 344 1000.5  A 1 1 0 0 1 343 999.5 L 343 985.5  Z " stroke-width="2" stroke="#797979" fill="none" />
</svg>