<?xml version="1.0" encoding="utf-8"?>
<svg version="1.1" xmlns:xlink="http://www.w3.org/1999/xlink" width="18px" height="18px" viewBox="141 1070.5  18 18" xmlns="http://www.w3.org/2000/svg">
  <path d="M 142.5 1072.5  A 0.5 0.5 0 0 1 143 1072 L 157 1072  A 0.5 0.5 0 0 1 157.5 1072.5 L 157.5 1086.5  A 0.5 0.5 0 0 1 157 1087 L 143 1087  A 0.5 0.5 0 0 1 142.5 1086.5 L 142.5 1072.5  Z " fill-rule="nonzero" fill="#ffffff" stroke="none" fill-opacity="0" />
  <path d="M 142 1072.5  A 1 1 0 0 1 143 1071.5 L 157 1071.5  A 1 1 0 0 1 158 1072.5 L 158 1086.5  A 1 1 0 0 1 157 1087.5 L 143 1087.5  A 1 1 0 0 1 142 1086.5 L 142 1072.5  Z " stroke-width="2" stroke="#797979" fill="none" />
</svg>