<?xml version="1.0" encoding="utf-8"?>
<svg version="1.1" xmlns:xlink="http://www.w3.org/1999/xlink" width="18px" height="18px" viewBox="141 1111.5  18 18" xmlns="http://www.w3.org/2000/svg">
  <path d="M 142.5 1113.5  A 0.5 0.5 0 0 1 143 1113 L 157 1113  A 0.5 0.5 0 0 1 157.5 1113.5 L 157.5 1127.5  A 0.5 0.5 0 0 1 157 1128 L 143 1128  A 0.5 0.5 0 0 1 142.5 1127.5 L 142.5 1113.5  Z " fill-rule="nonzero" fill="#ffffff" stroke="none" fill-opacity="0" />
  <path d="M 142 1113.5  A 1 1 0 0 1 143 1112.5 L 157 1112.5  A 1 1 0 0 1 158 1113.5 L 158 1127.5  A 1 1 0 0 1 157 1128.5 L 143 1128.5  A 1 1 0 0 1 142 1127.5 L 142 1113.5  Z " stroke-width="2" stroke="#797979" fill="none" />
</svg>