<?xml version="1.0" encoding="utf-8"?>
<svg version="1.1" xmlns:xlink="http://www.w3.org/1999/xlink" width="18px" height="18px" viewBox="326 1070.5  18 18" xmlns="http://www.w3.org/2000/svg">
  <path d="M 327.5 1072.5  A 0.5 0.5 0 0 1 328 1072 L 342 1072  A 0.5 0.5 0 0 1 342.5 1072.5 L 342.5 1086.5  A 0.5 0.5 0 0 1 342 1087 L 328 1087  A 0.5 0.5 0 0 1 327.5 1086.5 L 327.5 1072.5  Z " fill-rule="nonzero" fill="#ffffff" stroke="none" fill-opacity="0" />
  <path d="M 327 1072.5  A 1 1 0 0 1 328 1071.5 L 342 1071.5  A 1 1 0 0 1 343 1072.5 L 343 1086.5  A 1 1 0 0 1 342 1087.5 L 328 1087.5  A 1 1 0 0 1 327 1086.5 L 327 1072.5  Z " stroke-width="2" stroke="#797979" fill="none" />
</svg>