<?xml version="1.0" encoding="utf-8"?>
<svg version="1.1" xmlns:xlink="http://www.w3.org/1999/xlink" width="18px" height="18px" viewBox="326 1113.5  18 18" xmlns="http://www.w3.org/2000/svg">
  <path d="M 327.5 1115.5  A 0.5 0.5 0 0 1 328 1115 L 342 1115  A 0.5 0.5 0 0 1 342.5 1115.5 L 342.5 1129.5  A 0.5 0.5 0 0 1 342 1130 L 328 1130  A 0.5 0.5 0 0 1 327.5 1129.5 L 327.5 1115.5  Z " fill-rule="nonzero" fill="#ffffff" stroke="none" fill-opacity="0" />
  <path d="M 327 1115.5  A 1 1 0 0 1 328 1114.5 L 342 1114.5  A 1 1 0 0 1 343 1115.5 L 343 1129.5  A 1 1 0 0 1 342 1130.5 L 328 1130.5  A 1 1 0 0 1 327 1129.5 L 327 1115.5  Z " stroke-width="2" stroke="#797979" fill="none" />
</svg>