<?xml version="1.0" encoding="utf-8"?>
<svg version="1.1" xmlns:xlink="http://www.w3.org/1999/xlink" width="18px" height="18px" viewBox="350 1252.5  18 18" xmlns="http://www.w3.org/2000/svg">
  <path d="M 351.5 1254.5  A 0.5 0.5 0 0 1 352 1254 L 366 1254  A 0.5 0.5 0 0 1 366.5 1254.5 L 366.5 1268.5  A 0.5 0.5 0 0 1 366 1269 L 352 1269  A 0.5 0.5 0 0 1 351.5 1268.5 L 351.5 1254.5  Z " fill-rule="nonzero" fill="#ffffff" stroke="none" fill-opacity="0" />
  <path d="M 351 1254.5  A 1 1 0 0 1 352 1253.5 L 366 1253.5  A 1 1 0 0 1 367 1254.5 L 367 1268.5  A 1 1 0 0 1 366 1269.5 L 352 1269.5  A 1 1 0 0 1 351 1268.5 L 351 1254.5  Z " stroke-width="2" stroke="#797979" fill="none" />
</svg>