<?xml version="1.0" encoding="utf-8"?>
<svg version="1.1" xmlns:xlink="http://www.w3.org/1999/xlink" width="296px" height="415px" xmlns="http://www.w3.org/2000/svg">
  <defs>
    <filter x="99px" y="1403px" width="296px" height="415px" filterUnits="userSpaceOnUse" id="filter39">
      <feOffset dx="5" dy="5" in="SourceAlpha" result="shadowOffsetInner" />
      <feGaussianBlur stdDeviation="2.5" in="shadowOffsetInner" result="shadowGaussian" />
      <feComposite in2="shadowGaussian" operator="atop" in="SourceAlpha" result="shadowComposite" />
      <feColorMatrix type="matrix" values="0 0 0 0 1  0 0 0 0 0.011764705882352941  0 0 0 0 0.011764705882352941  0 0 0 0.5254901960784314 0  " in="shadowComposite" />
    </filter>
    <g id="widget40">
      <path d="M 119 1807  L 375 1807  C 380.04 1807  384 1803.04  384 1798  L 384 1423  C 384 1419.1566723821402  381.69723867686736 1415.9413705796803  378.36881071899097 1414.631189281009  C 377.46657220626145 1412.3391126855888  375.6608873144113 1410.5334277937386  373.36881071899097 1409.631189281009  C 372.05862942031973 1406.3027613231327  368.84332761785976 1404  365 1404  L 109 1404  C 103.96 1404  100 1407.96  100 1413  L 100 1788  C 100 1791.8433276178598  102.30276132313264 1795.0586294203197  105.63118928100904 1796.368810718991  C 106.53342779373857 1798.6608873144112  108.33911268558874 1800.4665722062614  110.63118928100904 1801.368810718991  C 111.9413705796803 1804.6972386768673  115.15667238214024 1807  119 1807  Z " fill-rule="nonzero" fill="#ffffff" stroke="none" />
      <path d="M 119.5 1807.5  L 374.5 1807.5  C 380.1 1807.5  384.5 1803.1  384.5 1797.5  L 384.5 1423.5  C 384.5 1419.3820754312728  382.12078660343127 1415.9130272434281  378.634752186914 1414.365247813086  C 377.6440314953745 1412.1338662866506  375.86613371334954 1410.3559685046255  373.634752186914 1409.365247813086  C 372.0869727565718 1405.8792133965687  368.61792456872706 1403.5  364.5 1403.5  L 109.5 1403.5  C 103.9 1403.5  99.5 1407.9  99.5 1413.5  L 99.5 1787.5  C 99.5 1791.6179245687272  101.87921339656872 1795.0869727565719  105.36524781308601 1796.6347521869138  C 106.35596850462551 1798.8661337133494  108.13386628665047 1800.6440314953745  110.365247813086 1801.6347521869138  C 111.91302724342822 1805.1207866034313  115.38207543127291 1807.5  119.5 1807.5  Z " stroke-width="1" stroke="#a41717" fill="none" stroke-opacity="0.6274509803921569" />
      <path d="M 378.67801457756826 1414.0719854224317  C 379.20722037943085 1415.2639056680093  379.5 1416.5920283402907  379.5 1418  L 379.5 1792.5  C 379.5 1798.1  375.1 1802.5  369.5 1802.5  L 114 1802.5  C 110.0879716597093 1802.5  106.79237588125685 1800.2397472732596  105.32198542243174 1796.9280145775683  M 373.67801457756826 1409.0719854224317  C 374.20722037943085 1410.2639056680093  374.5 1411.5920283402907  374.5 1413  L 374.5 1787.499  C 374.5 1793.099  370.1 1797.499  364.5 1797.499  L 109 1797.5  C 107.59202834029072 1797.5  106.2639056680094 1797.207220379431  105.07198542243174 1796.6780145775683  " stroke-width="1" stroke="#a41717" fill="none" stroke-opacity="0.6274509803921569" />
    </g>
  </defs>
  <g transform="matrix(1 0 0 1 -99 -1403 )">
    <use xlink:href="#widget40" filter="url(#filter39)" />
    <use xlink:href="#widget40" />
  </g>
</svg>