<?xml version="1.0" encoding="utf-8"?>
<svg version="1.1" xmlns:xlink="http://www.w3.org/1999/xlink" width="296px" height="415px" xmlns="http://www.w3.org/2000/svg">
  <defs>
    <filter x="501px" y="1403px" width="296px" height="415px" filterUnits="userSpaceOnUse" id="filter41">
      <feOffset dx="5" dy="5" in="SourceAlpha" result="shadowOffsetInner" />
      <feGaussianBlur stdDeviation="2.5" in="shadowOffsetInner" result="shadowGaussian" />
      <feComposite in2="shadowGaussian" operator="atop" in="SourceAlpha" result="shadowComposite" />
      <feColorMatrix type="matrix" values="0 0 0 0 0.36470588235294116  0 0 0 0 0.48627450980392156  0 0 0 0 0.7215686274509804  0 0 0 0.5686274509803921 0  " in="shadowComposite" />
    </filter>
    <g id="widget42">
      <path d="M 521 1807  L 777 1807  C 782.04 1807  786 1803.04  786 1798  L 786 1423  C 786 1419.1566723821402  783.6972386768673 1415.9413705796803  780.368810718991 1414.631189281009  C 779.4665722062614 1412.3391126855888  777.6608873144113 1410.5334277937386  775.368810718991 1409.631189281009  C 774.0586294203197 1406.3027613231327  770.8433276178598 1404  767 1404  L 511 1404  C 505.96 1404  502 1407.96  502 1413  L 502 1788  C 502 1791.8433276178598  504.30276132313264 1795.0586294203197  507.63118928100903 1796.368810718991  C 508.53342779373855 1798.6608873144112  510.33911268558876 1800.4665722062614  512.631189281009 1801.368810718991  C 513.9413705796803 1804.6972386768673  517.1566723821402 1807  521 1807  Z " fill-rule="nonzero" fill="#ffffff" stroke="none" />
      <path d="M 521.5 1807.5  L 776.5 1807.5  C 782.1 1807.5  786.5 1803.1  786.5 1797.5  L 786.5 1423.5  C 786.5 1419.3820754312728  784.1207866034313 1415.9130272434281  780.634752186914 1414.365247813086  C 779.6440314953745 1412.1338662866506  777.8661337133495 1410.3559685046255  775.634752186914 1409.365247813086  C 774.0869727565719 1405.8792133965687  770.6179245687271 1403.5  766.5 1403.5  L 511.5 1403.5  C 505.9 1403.5  501.5 1407.9  501.5 1413.5  L 501.5 1787.5  C 501.5 1791.6179245687272  503.87921339656873 1795.0869727565719  507.365247813086 1796.6347521869138  C 508.35596850462554 1798.8661337133494  510.13386628665046 1800.6440314953745  512.3652478130861 1801.6347521869138  C 513.9130272434282 1805.1207866034313  517.3820754312729 1807.5  521.5 1807.5  Z " stroke-width="1" stroke="#a41717" fill="none" stroke-opacity="0.6274509803921569" />
      <path d="M 780.6780145775683 1414.0719854224317  C 781.2072203794309 1415.2639056680093  781.5 1416.5920283402907  781.5 1418  L 781.5 1792.5  C 781.5 1798.1  777.1 1802.5  771.5 1802.5  L 516 1802.5  C 512.0879716597093 1802.5  508.7923758812568 1800.2397472732596  507.32198542243174 1796.9280145775683  M 775.6780145775683 1409.0719854224317  C 776.2072203794309 1410.2639056680093  776.5 1411.5920283402907  776.5 1413  L 776.5 1787.499  C 776.5 1793.099  772.1 1797.499  766.5 1797.499  L 511 1797.5  C 509.5920283402907 1797.5  508.2639056680094 1797.207220379431  507.07198542243174 1796.6780145775683  " stroke-width="1" stroke="#a41717" fill="none" stroke-opacity="0.6274509803921569" />
    </g>
  </defs>
  <g transform="matrix(1 0 0 1 -501 -1403 )">
    <use xlink:href="#widget42" filter="url(#filter41)" />
    <use xlink:href="#widget42" />
  </g>
</svg>