<?xml version="1.0" encoding="utf-8"?>
<svg version="1.1" xmlns:xlink="http://www.w3.org/1999/xlink" width="296px" height="415px" xmlns="http://www.w3.org/2000/svg">
  <defs>
    <filter x="99px" y="1900px" width="296px" height="415px" filterUnits="userSpaceOnUse" id="filter43">
      <feOffset dx="5" dy="5" in="SourceAlpha" result="shadowOffsetInner" />
      <feGaussianBlur stdDeviation="2.5" in="shadowOffsetInner" result="shadowGaussian" />
      <feComposite in2="shadowGaussian" operator="atop" in="SourceAlpha" result="shadowComposite" />
      <feColorMatrix type="matrix" values="0 0 0 0 0.36470588235294116  0 0 0 0 0.48627450980392156  0 0 0 0 0.7215686274509804  0 0 0 0.5686274509803921 0  " in="shadowComposite" />
    </filter>
    <g id="widget44">
      <path d="M 119 2304  L 375 2304  C 380.04 2304  384 2300.04  384 2295  L 384 1920  C 384 1916.1566723821402  381.69723867686736 1912.9413705796803  378.36881071899097 1911.631189281009  C 377.46657220626145 1909.3391126855888  375.6608873144113 1907.5334277937386  373.36881071899097 1906.631189281009  C 372.05862942031973 1903.3027613231327  368.84332761785976 1901  365 1901  L 109 1901  C 103.96 1901  100 1904.96  100 1910  L 100 2285  C 100 2288.84332761786  102.30276132313264 2292.05862942032  105.63118928100904 2293.368810718991  C 106.53342779373857 2295.6608873144114  108.33911268558874 2297.4665722062614  110.63118928100904 2298.368810718991  C 111.9413705796803 2301.6972386768675  115.15667238214024 2304  119 2304  Z " fill-rule="nonzero" fill="#ffffff" stroke="none" />
      <path d="M 119.5 2304.5  L 374.5 2304.5  C 380.1 2304.5  384.5 2300.1  384.5 2294.5  L 384.5 1920.5  C 384.5 1916.3820754312728  382.12078660343127 1912.9130272434281  378.634752186914 1911.365247813086  C 377.6440314953745 1909.1338662866506  375.86613371334954 1907.3559685046255  373.634752186914 1906.365247813086  C 372.0869727565718 1902.8792133965687  368.61792456872706 1900.5  364.5 1900.5  L 109.5 1900.5  C 103.9 1900.5  99.5 1904.9  99.5 1910.5  L 99.5 2284.5  C 99.5 2288.617924568727  101.87921339656872 2292.086972756572  105.36524781308601 2293.634752186914  C 106.35596850462551 2295.8661337133494  108.13386628665047 2297.6440314953743  110.365247813086 2298.634752186914  C 111.91302724342822 2302.120786603431  115.38207543127291 2304.5  119.5 2304.5  Z " stroke-width="1" stroke="#a41717" fill="none" stroke-opacity="0.6274509803921569" />
      <path d="M 378.67801457756826 1911.0719854224317  C 379.20722037943085 1912.2639056680093  379.5 1913.5920283402907  379.5 1915  L 379.5 2289.5  C 379.5 2295.1  375.1 2299.5  369.5 2299.5  L 114 2299.5  C 110.0879716597093 2299.5  106.79237588125685 2297.2397472732596  105.32198542243174 2293.9280145775683  M 373.67801457756826 1906.0719854224317  C 374.20722037943085 1907.2639056680093  374.5 1908.5920283402907  374.5 1910  L 374.5 2284.499  C 374.5 2290.099  370.1 2294.499  364.5 2294.499  L 109 2294.5  C 107.59202834029072 2294.5  106.2639056680094 2294.207220379431  105.07198542243174 2293.6780145775683  " stroke-width="1" stroke="#a41717" fill="none" stroke-opacity="0.6274509803921569" />
    </g>
  </defs>
  <g transform="matrix(1 0 0 1 -99 -1900 )">
    <use xlink:href="#widget44" filter="url(#filter43)" />
    <use xlink:href="#widget44" />
  </g>
</svg>