<?xml version="1.0" encoding="utf-8"?>
<svg version="1.1" xmlns:xlink="http://www.w3.org/1999/xlink" width="296px" height="415px" xmlns="http://www.w3.org/2000/svg">
  <defs>
    <filter x="501px" y="1900px" width="296px" height="415px" filterUnits="userSpaceOnUse" id="filter45">
      <feOffset dx="5" dy="5" in="SourceAlpha" result="shadowOffsetInner" />
      <feGaussianBlur stdDeviation="2.5" in="shadowOffsetInner" result="shadowGaussian" />
      <feComposite in2="shadowGaussian" operator="atop" in="SourceAlpha" result="shadowComposite" />
      <feColorMatrix type="matrix" values="0 0 0 0 1  0 0 0 0 0.011764705882352941  0 0 0 0 0.011764705882352941  0 0 0 0.5254901960784314 0  " in="shadowComposite" />
    </filter>
    <g id="widget46">
      <path d="M 521 2304  L 777 2304  C 782.04 2304  786 2300.04  786 2295  L 786 1920  C 786 1916.1566723821402  783.6972386768673 1912.9413705796803  780.368810718991 1911.631189281009  C 779.4665722062614 1909.3391126855888  777.6608873144113 1907.5334277937386  775.368810718991 1906.631189281009  C 774.0586294203197 1903.3027613231327  770.8433276178598 1901  767 1901  L 511 1901  C 505.96 1901  502 1904.96  502 1910  L 502 2285  C 502 2288.84332761786  504.30276132313264 2292.05862942032  507.63118928100903 2293.368810718991  C 508.53342779373855 2295.6608873144114  510.33911268558876 2297.4665722062614  512.631189281009 2298.368810718991  C 513.9413705796803 2301.6972386768675  517.1566723821402 2304  521 2304  Z " fill-rule="nonzero" fill="#ffffff" stroke="none" />
      <path d="M 521.5 2304.5  L 776.5 2304.5  C 782.1 2304.5  786.5 2300.1  786.5 2294.5  L 786.5 1920.5  C 786.5 1916.3820754312728  784.1207866034313 1912.9130272434281  780.634752186914 1911.365247813086  C 779.6440314953745 1909.1338662866506  777.8661337133495 1907.3559685046255  775.634752186914 1906.365247813086  C 774.0869727565719 1902.8792133965687  770.6179245687271 1900.5  766.5 1900.5  L 511.5 1900.5  C 505.9 1900.5  501.5 1904.9  501.5 1910.5  L 501.5 2284.5  C 501.5 2288.617924568727  503.87921339656873 2292.086972756572  507.365247813086 2293.634752186914  C 508.35596850462554 2295.8661337133494  510.13386628665046 2297.6440314953743  512.3652478130861 2298.634752186914  C 513.9130272434282 2302.120786603431  517.3820754312729 2304.5  521.5 2304.5  Z " stroke-width="1" stroke="#a41717" fill="none" stroke-opacity="0.6274509803921569" />
      <path d="M 780.6780145775683 1911.0719854224317  C 781.2072203794309 1912.2639056680093  781.5 1913.5920283402907  781.5 1915  L 781.5 2289.5  C 781.5 2295.1  777.1 2299.5  771.5 2299.5  L 516 2299.5  C 512.0879716597093 2299.5  508.7923758812568 2297.2397472732596  507.32198542243174 2293.9280145775683  M 775.6780145775683 1906.0719854224317  C 776.2072203794309 1907.2639056680093  776.5 1908.5920283402907  776.5 1910  L 776.5 2284.499  C 776.5 2290.099  772.1 2294.499  766.5 2294.499  L 511 2294.5  C 509.5920283402907 2294.5  508.2639056680094 2294.207220379431  507.07198542243174 2293.6780145775683  " stroke-width="1" stroke="#a41717" fill="none" stroke-opacity="0.6274509803921569" />
    </g>
  </defs>
  <g transform="matrix(1 0 0 1 -501 -1900 )">
    <use xlink:href="#widget46" filter="url(#filter45)" />
    <use xlink:href="#widget46" />
  </g>
</svg>