<?xml version="1.0" encoding="utf-8"?>
<svg version="1.1" xmlns:xlink="http://www.w3.org/1999/xlink" width="54px" height="50px" xmlns="http://www.w3.org/2000/svg">
  <defs>
    <mask fill="white" id="clip60">
      <path d="M 40 10.421052631578952  C 40 4.585263157894737  35.160000000000004 0  29 0  C 25.519999999999982 0  22.179999999999986 1.5347368421052607  20 3.959999999999998  C 17.82000000000001 1.5347368421052607  14.48 0  11 0  C 4.839999999999994 0  0 4.585263157894737  0 10.421052631578952  C 0 17.583157894736836  6.799999999999993 23.418947368421037  17.099999999999984 32.2863157894737  L 20 34.768421052631574  L 22.900000000000013 32.26736842105264  C 33.20000000000001 23.418947368421037  40 17.583157894736836  40 10.421052631578952  Z " fill-rule="evenodd" />
    </mask>
    <filter x="310px" y="1935px" width="54px" height="50px" filterUnits="userSpaceOnUse" id="filter61">
      <feOffset dx="5" dy="5" in="SourceAlpha" result="shadowOffsetInner" />
      <feGaussianBlur stdDeviation="3.5" in="shadowOffsetInner" result="shadowGaussian" />
      <feComposite in2="shadowGaussian" operator="atop" in="SourceAlpha" result="shadowComposite" />
      <feColorMatrix type="matrix" values="0 0 0 0 0.19607843137254902  0 0 0 0 0.1764705882352941  0 0 0 0 0.1764705882352941  0 0 0 0.6470588235294118 0  " in="shadowComposite" />
    </filter>
    <g id="widget62">
      <path d="M 40 10.421052631578952  C 40 4.585263157894737  35.160000000000004 0  29 0  C 25.519999999999982 0  22.179999999999986 1.5347368421052607  20 3.959999999999998  C 17.82000000000001 1.5347368421052607  14.48 0  11 0  C 4.839999999999994 0  0 4.585263157894737  0 10.421052631578952  C 0 17.583157894736836  6.799999999999993 23.418947368421037  17.099999999999984 32.2863157894737  L 20 34.768421052631574  L 22.900000000000013 32.26736842105264  C 33.20000000000001 23.418947368421037  40 17.583157894736836  40 10.421052631578952  Z " fill-rule="nonzero" fill="#ffffff" stroke="none" transform="matrix(1 0 0 1 312 1937 )" />
      <path d="M 40 10.421052631578952  C 40 4.585263157894737  35.160000000000004 0  29 0  C 25.519999999999982 0  22.179999999999986 1.5347368421052607  20 3.959999999999998  C 17.82000000000001 1.5347368421052607  14.48 0  11 0  C 4.839999999999994 0  0 4.585263157894737  0 10.421052631578952  C 0 17.583157894736836  6.799999999999993 23.418947368421037  17.099999999999984 32.2863157894737  L 20 34.768421052631574  L 22.900000000000013 32.26736842105264  C 33.20000000000001 23.418947368421037  40 17.583157894736836  40 10.421052631578952  Z " stroke-width="2" stroke="#000000" fill="none" transform="matrix(1 0 0 1 312 1937 )" mask="url(#clip60)" />
    </g>
  </defs>
  <g transform="matrix(1 0 0 1 -310 -1935 )">
    <use xlink:href="#widget62" filter="url(#filter61)" />
    <use xlink:href="#widget62" />
  </g>
</svg>