<?xml version="1.0" encoding="utf-8"?>
<svg version="1.1" xmlns:xlink="http://www.w3.org/1999/xlink" width="54px" height="51px" xmlns="http://www.w3.org/2000/svg">
  <defs>
    <filter x="717px" y="1434px" width="54px" height="51px" filterUnits="userSpaceOnUse" id="filter92">
      <feOffset dx="5" dy="5" in="SourceAlpha" result="shadowOffsetInner" />
      <feGaussianBlur stdDeviation="3.5" in="shadowOffsetInner" result="shadowGaussian" />
      <feComposite in2="shadowGaussian" operator="atop" in="SourceAlpha" result="shadowComposite" />
      <feColorMatrix type="matrix" values="0 0 0 0 0.19607843137254902  0 0 0 0 0.1764705882352941  0 0 0 0 0.1764705882352941  0 0 0 0.6470588235294118 0  " in="shadowComposite" />
    </filter>
    <g id="widget93">
      <path d="M 40 10.710526315789478  C 40 4.712631578947368  35.160000000000004 0  29 0  C 25.519999999999982 0  22.179999999999986 1.577368421052629  20 4.069999999999998  C 17.82000000000001 1.577368421052629  14.48 0  11 0  C 4.839999999999994 0  0 4.712631578947368  0 10.710526315789478  C 0 18.071578947368415  6.799999999999993 24.06947368421051  17.099999999999984 33.18315789473685  L 20 35.734210526315785  L 22.900000000000013 33.16368421052632  C 33.20000000000001 24.06947368421051  40 18.071578947368415  40 10.710526315789478  Z " fill-rule="nonzero" fill="#ff2f2f" stroke="none" transform="matrix(1 0 0 1 719 1436 )" />
    </g>
  </defs>
  <g transform="matrix(1 0 0 1 -717 -1434 )">
    <use xlink:href="#widget93" filter="url(#filter92)" />
    <use xlink:href="#widget93" />
  </g>
</svg>