<?xml version="1.0" encoding="utf-8"?>
<svg version="1.1" xmlns:xlink="http://www.w3.org/1999/xlink" width="39px" height="40px" xmlns="http://www.w3.org/2000/svg">
  <defs>
    <filter x="611px" y="151px" width="39px" height="40px" filterUnits="userSpaceOnUse" id="filter33">
      <feOffset dx="5" dy="5" in="SourceAlpha" result="shadowOffsetInner" />
      <feGaussianBlur stdDeviation="2.5" in="shadowOffsetInner" result="shadowGaussian" />
      <feComposite in2="shadowGaussian" operator="atop" in="SourceAlpha" result="shadowComposite" />
      <feColorMatrix type="matrix" values="0 0 0 0 0  0 0 0 0 0  0 0 0 0 0  0 0 0 0.24705882352941178 0  " in="shadowComposite" />
    </filter>
    <g id="widget34">
      <path d="M 17.917317708333332 18.535156250000004  C 18.861328125 17.558593749999996  19.333333333333332 16.380208333333332  19.333333333333332 15  C 19.333333333333332 13.619791666666664  18.861328125 12.441406249999998  17.917317708333332 11.464843750000002  C 16.973307291666668 10.48828125  15.834201388888891 10.000000000000002  14.5 10.000000000000002  C 13.165798611111112 10.000000000000002  12.026692708333334 10.48828125  11.082682291666666 11.464843750000002  C 10.138671875 12.441406249999998  9.666666666666666 13.619791666666664  9.666666666666666 15  C 9.666666666666666 16.380208333333332  10.138671875 17.558593749999996  11.082682291666666 18.535156250000004  C 12.026692708333334 19.51171875  13.165798611111112 20.000000000000004  14.5 20.000000000000004  C 15.834201388888891 20.000000000000004  16.973307291666668 19.51171875  17.917317708333332 18.535156250000004  Z M 19.767578125 9.55078125  C 21.215060763888893 11.048177083333329  21.938802083333332 12.864583333333329  21.938802083333332 15  C 21.938802083333332 17.135416666666668  21.215060763888893 18.951822916666668  19.767578125 20.44921875  C 18.32009548611111 21.946614583333332  16.56423611111111 22.6953125  14.5 22.6953125  C 12.43576388888889 22.6953125  10.67990451388889 21.946614583333332  9.232421875 20.44921875  C 7.784939236111112 18.951822916666668  7.061197916666667 17.135416666666668  7.061197916666667 15  C 7.061197916666667 12.864583333333329  7.784939236111112 11.048177083333329  9.232421875 9.55078125  C 10.67990451388889 8.053385416666664  12.43576388888889 7.304687500000001  14.5 7.304687500000001  C 16.56423611111111 7.304687500000001  18.32009548611111 8.053385416666664  19.767578125 9.55078125  Z M 23.468098958333332 5.722656250000001  C 23.807942708333332 6.074218750000001  23.977864583333332 6.497395833333331  23.977864583333332 6.992187499999999  C 23.977864583333332 7.486979166666666  23.807942708333332 7.91015625  23.468098958333332 8.26171875  C 23.128255208333332 8.61328125  22.71918402777778 8.7890625  22.240885416666668 8.7890625  C 21.762586805555557 8.7890625  21.353515625 8.61328125  21.013671875 8.26171875  C 20.673828125 7.91015625  20.50390625 7.486979166666666  20.50390625 6.992187499999999  C 20.50390625 6.497395833333331  20.673828125 6.074218750000001  21.013671875 5.722656250000001  C 21.353515625 5.371093750000001  21.762586805555557 5.195312500000001  22.240885416666668 5.195312500000001  C 22.71918402777778 5.195312500000001  23.128255208333332 5.371093750000001  23.468098958333332 5.722656250000001  Z M 15.9443359375 2.685546874999999  C 15.069552951388891 2.6920572916666643  14.588107638888891 2.6953125  14.5 2.6953125  C 14.411892361111112 2.6953125  13.930447048611112 2.6920572916666643  13.0556640625 2.685546874999999  C 12.18088107638889 2.6790364583333304  11.516927083333334 2.6790364583333304  11.063802083333334 2.685546874999999  C 10.610677083333334 2.6920572916666643  10.003363715277779 2.711588541666666  9.241861979166666 2.744140624999999  C 8.480360243055557 2.7766927083333313  7.8321397569444455 2.841796875  7.297200520833334 2.939453125000001  C 6.762261284722223 3.037109374999999  6.312282986111112 3.1575520833333313  5.947265625 3.300781249999999  C 5.317925347222223 3.561197916666666  4.764105902777778 3.9388020833333304  4.285807291666667 4.433593750000001  C 3.807508680555556 4.928385416666665  3.4424913194444446 5.501302083333331  3.1907552083333335 6.15234375  C 3.0523003472222223 6.529947916666664  2.9358723958333335 6.995442708333331  2.8414713541666665 7.548828124999999  C 2.7470703125 8.102213541666666  2.6841362847222223 8.77278645833333  2.6526692708333335 9.560546875000002  C 2.6212022569444446 10.348307291666664  2.6023220486111116 10.976562499999998  2.5960286458333335 11.445312499999998  C 2.589735243055556 11.914062499999998  2.589735243055556 12.600911458333329  2.5960286458333335 13.505859375  C 2.6023220486111116 14.410807291666664  2.60546875 14.908854166666664  2.60546875 15  C 2.60546875 15.091145833333332  2.6023220486111116 15.589192708333332  2.5960286458333335 16.494140625  C 2.589735243055556 17.399088541666668  2.589735243055556 18.085937499999996  2.5960286458333335 18.554687499999996  C 2.6023220486111116 19.023437499999996  2.6212022569444446 19.65169270833333  2.6526692708333335 20.439453125000004  C 2.6841362847222223 21.227213541666664  2.7470703125 21.89778645833333  2.8414713541666665 22.451171874999996  C 2.9358723958333335 23.004557291666664  3.0523003472222223 23.47005208333333  3.1907552083333335 23.84765625  C 3.4424913194444446 24.498697916666664  3.807508680555556 25.071614583333336  4.285807291666667 25.56640625  C 4.764105902777778 26.061197916666668  5.317925347222223 26.438802083333332  5.947265625 26.69921875  C 6.312282986111112 26.842447916666664  6.762261284722223 26.962890625  7.297200520833334 27.060546875  C 7.8321397569444455 27.158203125  8.480360243055557 27.223307291666664  9.241861979166666 27.255859375  C 10.003363715277779 27.288411458333332  10.610677083333334 27.307942708333336  11.063802083333334 27.314453125  C 11.516927083333334 27.320963541666668  12.18088107638889 27.320963541666668  13.0556640625 27.314453125  C 13.930447048611112 27.307942708333336  14.411892361111112 27.3046875  14.5 27.3046875  C 14.588107638888891 27.3046875  15.069552951388891 27.307942708333336  15.9443359375 27.314453125  C 16.81911892361111 27.320963541666668  17.483072916666668 27.320963541666668  17.936197916666668 27.314453125  C 18.389322916666668 27.307942708333336  18.996636284722225 27.288411458333332  19.758138020833332 27.255859375  C 20.519639756944446 27.223307291666664  21.167860243055557 27.158203125  21.702799479166668 27.060546875  C 22.23773871527778 26.962890625  22.687717013888893 26.842447916666664  23.052734375 26.69921875  C 23.68207465277778 26.438802083333332  24.235894097222225 26.061197916666668  24.714192708333332 25.56640625  C 25.192491319444446 25.071614583333336  25.557508680555557 24.498697916666664  25.809244791666668 23.84765625  C 25.94769965277778 23.47005208333333  26.064127604166668 23.004557291666664  26.158528645833332 22.451171874999996  C 26.2529296875 21.89778645833333  26.31586371527778 21.227213541666664  26.347330729166668 20.439453125000004  C 26.378797743055557 19.65169270833333  26.397677951388893 19.023437499999996  26.403971354166668 18.554687499999996  C 26.410264756944446 18.085937499999996  26.410264756944446 17.399088541666668  26.403971354166668 16.494140625  C 26.397677951388893 15.589192708333332  26.39453125 15.091145833333332  26.39453125 15  C 26.39453125 14.908854166666664  26.397677951388893 14.410807291666664  26.403971354166668 13.505859375  C 26.410264756944446 12.600911458333329  26.410264756944446 11.914062499999998  26.403971354166668 11.445312499999998  C 26.397677951388893 10.976562499999998  26.378797743055557 10.348307291666664  26.347330729166668 9.560546875000002  C 26.31586371527778 8.77278645833333  26.2529296875 8.102213541666666  26.158528645833332 7.548828124999999  C 26.064127604166668 6.995442708333331  25.94769965277778 6.529947916666664  25.809244791666668 6.15234375  C 25.557508680555557 5.501302083333331  25.192491319444446 4.928385416666665  24.714192708333332 4.433593750000001  C 24.235894097222225 3.9388020833333304  23.68207465277778 3.561197916666666  23.052734375 3.300781249999999  C 22.687717013888893 3.1575520833333313  22.23773871527778 3.037109374999999  21.702799479166668 2.939453125000001  C 21.167860243055557 2.841796875  20.519639756944446 2.7766927083333313  19.758138020833332 2.744140624999999  C 18.996636284722225 2.711588541666666  18.389322916666668 2.6920572916666643  17.936197916666668 2.685546874999999  C 17.483072916666668 2.6790364583333304  16.81911892361111 2.6790364583333304  15.9443359375 2.685546874999999  Z M 28.905598958333332 8.808593749999998  C 28.968532986111107 9.954427083333332  29 12.018229166666664  29 15  C 29 17.981770833333336  28.968532986111107 20.045572916666664  28.905598958333332 21.191406249999996  C 28.77973090277778 23.899739583333336  27.999348958333332 25.99609375  26.564453125 27.48046875  C 25.129557291666668 28.96484375  23.103081597222225 29.772135416666664  20.485026041666668 29.90234375  C 19.37738715277778 29.967447916666664  17.382378472222225 30  14.5 30  C 11.617621527777779 30  9.622612847222221 29.967447916666664  8.514973958333334 29.90234375  C 5.896918402777779 29.772135416666664  3.870442708333334 28.96484375  2.435546875 27.48046875  C 1.0006510416666667 25.99609375  0.22026909722222224 23.899739583333336  0.09440104166666667 21.191406249999996  C 0.03146701388888888 20.045572916666664  0 17.981770833333336  0 15  C 0 12.018229166666664  0.03146701388888888 9.954427083333332  0.09440104166666667 8.808593749999998  C 0.22026909722222224 6.100260416666665  1.0006510416666667 4.003906249999999  2.435546875 2.51953125  C 3.870442708333334 1.035156250000001  5.896918402777779 0.22786458333333148  8.514973958333334 0.09765625000000111  C 9.622612847222221 0.03255208333332926  11.617621527777779 0  14.5 0  C 17.382378472222225 0  19.37738715277778 0.03255208333332926  20.485026041666668 0.09765625000000111  C 23.103081597222225 0.22786458333333148  25.129557291666668 1.035156250000001  26.564453125 2.51953125  C 27.999348958333332 4.003906249999999  28.77973090277778 6.100260416666665  28.905598958333332 8.808593749999998  Z " fill-rule="nonzero" fill="#000000" stroke="none" transform="matrix(1 0 0 1 611 151 )" />
    </g>
  </defs>
  <g transform="matrix(1 0 0 1 -611 -151 )">
    <use xlink:href="#widget34" filter="url(#filter33)" />
    <use xlink:href="#widget34" />
  </g>
</svg>