<?xml version="1.0" encoding="utf-8"?>
<svg version="1.1" xmlns:xlink="http://www.w3.org/1999/xlink" width="34px" height="30px" xmlns="http://www.w3.org/2000/svg">
  <g transform="matrix(1 0 0 1 -500 -151 )">
    <path d="M 20.574869791666664 16.611328125  C 21.202039930555557 15.315755208333336  21.515625000000004 13.990885416666666  21.515625 12.636718750000002  C 21.515625000000004 11.230468750000002  21.120876736111114 10.130208333333332  20.331380208333336 9.335937499999998  C 19.541883680555554 8.541666666666666  18.45355902777778 8.14453125  17.06640625 8.14453125  C 16.13671875 8.14453125  15.221788194444446 8.343098958333332  14.321614583333332 8.740234375000002  C 13.421440972222223 9.137369791666664  12.609809027777779 9.687499999999998  11.88671875 10.390624999999998  C 11.163628472222223 11.093749999999998  10.577039930555557 11.985677083333329  10.126953125 13.06640625  C 9.676866319444445 14.147135416666664  9.451822916666668 15.319010416666668  9.451822916666668 16.58203125  C 9.451822916666668 18.040364583333336  9.846571180555557 19.166666666666664  10.636067708333332 19.960937499999996  C 11.425564236111112 20.75520833333333  12.536024305555557 21.15234375  13.967447916666668 21.15234375  C 15.384114583333332 21.15234375  16.682725694444446 20.719401041666664  17.86328125 19.853515625000004  C 19.043836805555554 18.987630208333332  19.94769965277778 17.906901041666664  20.574869791666664 16.611328125  Z M 29.307291666666664 4.140625000000001  C 32.435763888888886 6.901041666666666  34 10.520833333333329  34 15  C 34 16.445312499999996  33.72699652777778 17.727864583333332  33.180989583333336 18.847656249999996  C 32.63498263888889 19.967447916666664  31.908203125 20.846354166666664  31.000651041666664 21.484374999999996  C 30.093098958333336 22.122395833333332  29.122829861111114 22.607421875  28.08984375 22.939453125  C 27.056857638888893 23.271484375  25.986979166666664 23.450520833333332  24.880208333333336 23.4765625  C 24.791666666666664 23.4765625  24.677300347222225 23.479817708333332  24.537109375 23.486328125  C 24.39691840277778 23.492838541666664  24.275173611111114 23.49609375  24.171875 23.49609375  C 22.76996527777778 23.49609375  21.722222222222225 23.151041666666664  21.028645833333336 22.460937500000004  C 20.61545138888889 22.03125  20.371961805555554 21.490885416666664  20.298177083333336 20.839843749999996  C 19.530815972222225 21.699218750000004  18.560546875 22.415364583333332  17.387369791666664 22.98828125  C 16.214192708333332 23.561197916666664  14.934027777777779 23.84765625  13.546875 23.84765625  C 11.171006944444445 23.84765625  9.330078125 23.225911458333336  8.024088541666666 21.982421874999996  C 6.718098958333334 20.738932291666668  6.065104166666666 18.984375  6.065104166666666 16.718750000000004  C 6.065104166666666 14.674479166666664  6.552083333333334 12.786458333333334  7.526041666666666 11.054687500000002  C 8.5 9.322916666666664  9.820746527777777 7.95247395833333  11.48828125 6.943359375  C 13.155815972222223 5.934244791666666  14.97092013888889 5.429687500000001  16.93359375 5.429687500000001  C 18.217447916666668 5.429687500000001  19.361111111111114 5.660807291666665  20.364583333333336 6.123046875  C 21.368055555555554 6.585286458333331  22.150173611111114 7.233072916666664  22.7109375 8.066406250000002  L 22.755208333333336 7.695312499999999  L 22.998697916666664 6.601562500000001  C 23.013454861111114 6.523437499999999  23.054036458333336 6.4453125  23.120442708333336 6.367187500000001  C 23.186848958333336 6.289062499999999  23.256944444444446 6.250000000000001  23.330729166666664 6.250000000000001  L 25.942708333333336 6.250000000000001  C 26.016493055555557 6.250000000000001  26.112413194444446 6.321614583333331  26.23046875 6.464843749999999  C 26.304253472222225 6.529947916666664  26.326388888888893 6.63411458333333  26.296875 6.777343750000001  L 23.640625 18.769531250000004  C 23.56684027777778 19.082031249999996  23.529947916666664 19.39453125  23.529947916666664 19.707031250000004  C 23.529947916666664 20.21484375  23.622178819444446 20.553385416666664  23.806640625 20.722656249999996  C 23.991102430555557 20.891927083333332  24.319444444444446 20.9765625  24.791666666666664 20.9765625  C 25.204861111111114 20.963541666666664  25.62543402777778 20.927734374999996  26.053385416666664 20.869140624999996  C 26.481336805555557 20.810546874999996  27.01996527777778 20.654296875  27.669270833333336 20.400390624999996  C 28.318576388888893 20.146484375000004  28.88671875 19.820963541666664  29.373697916666664 19.423828125  C 29.860677083333336 19.02669270833333  30.28125 18.444010416666664  30.635416666666664 17.675781249999996  C 30.989583333333336 16.907552083333332  31.166666666666664 16.015625000000004  31.166666666666664 15  C 31.166666666666664 11.197916666666664  29.8828125 8.164062499999998  27.315104166666664 5.898437500000001  C 24.747395833333336 3.6328125  21.30902777777778 2.500000000000001  17 2.500000000000001  C 15.081597222222223 2.500000000000001  13.248046875 2.832031249999999  11.499348958333332 3.496093750000001  C 9.750651041666668 4.16015625  8.245442708333334 5.048828125000001  6.983723958333334 6.162109375000001  C 5.722005208333334 7.275390625000001  4.71484375 8.603515624999998  3.962239583333333 10.146484375000002  C 3.209635416666667 11.689453125  2.833333333333333 13.307291666666664  2.833333333333333 15  C 2.833333333333333 16.692708333333336  3.209635416666667 18.310546875  3.962239583333333 19.853515625000004  C 4.71484375 21.396484374999996  5.722005208333334 22.724609375  6.983723958333334 23.837890625  C 8.245442708333334 24.951171875  9.750651041666668 25.83984375  11.499348958333332 26.50390625  C 13.248046875 27.16796875  15.081597222222223 27.5  17 27.5  C 20.364583333333336 27.5  23.352864583333336 26.5625  25.96484375 24.6875  C 26.127170138888893 24.5703125  26.304253472222225 24.518229166666664  26.49609375 24.53125  C 26.68793402777778 24.544270833333336  26.842881944444446 24.622395833333332  26.9609375 24.765625  L 27.868489583333336 25.72265625  C 27.986545138888893 25.87890625  28.038194444444446 26.03515625  28.0234375 26.19140625  C 27.993923611111114 26.360677083333336  27.905381944444446 26.50390625  27.7578125 26.62109375  C 26.252604166666664 27.701822916666668  24.574001736111114 28.53515625  22.722005208333336 29.12109375  C 20.870008680555554 29.70703125  18.962673611111114 30  17 30  C 14.697916666666668 30  12.499131944444446 29.602864583333332  10.403645833333332 28.80859375  C 8.308159722222223 28.014322916666664  6.500434027777779 26.946614583333336  4.98046875 25.60546875  C 3.4605034722222223 24.264322916666664  2.250434027777778 22.669270833333336  1.3502604166666667 20.820312500000004  C 0.4500868055555557 18.971354166666664  0 17.031249999999996  0 15  C 0 12.968749999999998  0.4500868055555557 11.028645833333334  1.3502604166666667 9.179687500000002  C 2.250434027777778 7.330729166666665  3.4605034722222223 5.735677083333331  4.98046875 4.39453125  C 6.500434027777779 3.053385416666665  8.308159722222223 1.9856770833333315  10.403645833333332 1.191406249999999  C 12.499131944444446 0.3971354166666663  14.697916666666668 0  17 0  C 22.07638888888889 0  26.178819444444446 1.3802083333333293  29.307291666666664 4.140625000000001  Z " fill-rule="nonzero" fill="#000000" stroke="none" transform="matrix(1 0 0 1 500 151 )" />
  </g>
</svg>