<?xml version="1.0" encoding="utf-8"?>
<svg version="1.1" xmlns:xlink="http://www.w3.org/1999/xlink" width="33px" height="30px" xmlns="http://www.w3.org/2000/svg">
  <g transform="matrix(1 0 0 1 -664 -151 )">
    <path d="M 21.44140625 19.179687500000004  C 22.759114583333336 18.05989583333333  24.3203125 17.499999999999996  26.125 17.499999999999996  C 28.029947916666668 17.499999999999996  29.652018229166668 18.108723958333332  30.9912109375 19.326171875000004  C 32.33040364583333 20.543619791666664  33 22.018229166666664  33 23.75  C 33 25.481770833333336  32.33040364583333 26.956380208333336  30.9912109375 28.173828125  C 29.652018229166668 29.391276041666664  28.029947916666668 30  26.125 30  C 24.220052083333336 30  22.597981770833336 29.391276041666664  21.2587890625 28.173828125  C 19.919596354166668 26.956380208333336  19.25 25.481770833333336  19.25 23.75  C 19.25 23.59375  19.264322916666668 23.372395833333332  19.29296875 23.0859375  L 11.55859375 19.5703125  C 10.240885416666666 20.690104166666664  8.6796875 21.249999999999996  6.875 21.249999999999996  C 4.970052083333334 21.249999999999996  3.3479817708333335 20.641276041666664  2.0087890625 19.423828125  C 0.6695963541666666 18.20638020833333  0 16.731770833333332  0 15  C 0 13.268229166666664  0.6695963541666666 11.793619791666666  2.0087890625 10.576171875  C 3.3479817708333335 9.35872395833333  4.970052083333334 8.749999999999998  6.875 8.749999999999998  C 8.6796875 8.749999999999998  10.240885416666666 9.309895833333332  11.55859375 10.4296875  L 19.29296875 6.9140625  C 19.264322916666668 6.627604166666665  19.25 6.406249999999999  19.25 6.250000000000001  C 19.25 4.518229166666665  19.919596354166668 3.0436197916666643  21.2587890625 1.826171875000001  C 22.597981770833336 0.6087239583333315  24.220052083333336 0  26.125 0  C 28.029947916666668 0  29.652018229166668 0.6087239583333315  30.9912109375 1.826171875000001  C 32.33040364583333 3.0436197916666643  33 4.518229166666665  33 6.250000000000001  C 33 7.98177083333333  32.33040364583333 9.456380208333332  30.9912109375 10.673828125000002  C 29.652018229166668 11.891276041666668  28.029947916666668 12.499999999999998  26.125 12.499999999999998  C 24.3203125 12.499999999999998  22.759114583333336 11.940104166666666  21.44140625 10.820312500000002  L 13.70703125 14.335937500000002  C 13.735677083333334 14.622395833333332  13.75 14.843749999999998  13.75 15  C 13.75 15.156249999999998  13.735677083333334 15.377604166666668  13.70703125 15.664062500000002  L 21.44140625 19.179687500000004  Z " fill-rule="nonzero" fill="#000000" stroke="none" transform="matrix(1 0 0 1 664 151 )" />
  </g>
</svg>