<?xml version="1.0" encoding="utf-8"?>
<svg version="1.1" xmlns:xlink="http://www.w3.org/1999/xlink" width="44px" height="40px" xmlns="http://www.w3.org/2000/svg">
  <defs>
    <filter x="555px" y="151px" width="44px" height="40px" filterUnits="userSpaceOnUse" id="filter31">
      <feOffset dx="5" dy="5" in="SourceAlpha" result="shadowOffsetInner" />
      <feGaussianBlur stdDeviation="2.5" in="shadowOffsetInner" result="shadowGaussian" />
      <feComposite in2="shadowGaussian" operator="atop" in="SourceAlpha" result="shadowComposite" />
      <feColorMatrix type="matrix" values="0 0 0 0 0  0 0 0 0 0  0 0 0 0 0  0 0 0 0.24705882352941178 0  " in="shadowComposite" />
    </filter>
    <g id="widget32">
      <path d="M 6.375 0  L 27.625 0  C 29.381076388888893 0  30.882595486111114 0.5501302083333315  32.129557291666664 1.650390625000001  C 33.37651909722222 2.7506510416666643  34 4.0755208333333295  34 5.625  L 34 24.375  C 34 25.924479166666664  33.37651909722222 27.249348958333336  32.129557291666664 28.349609375  C 30.882595486111114 29.449869791666664  29.381076388888893 30  27.625 30  L 23 30  L 23 18.378906249999996  L 27.868489583333336 18.378906249999996  L 28.532552083333336 13.847656249999998  L 23.463541666666664 13.847656249999998  L 23.463541666666664 10.95703125  C 23.463541666666664 10.227864583333329  23.636935763888893 9.68098958333333  23.983723958333336 9.31640625  C 24.33051215277778 8.951822916666666  25.005642361111114 8.769531250000002  26.009114583333336 8.769531250000002  L 28.709635416666664 8.749999999999998  L 28.709635416666664 4.707031249999999  C 27.779947916666664 4.589843749999999  26.466579861111114 4.531249999999999  24.76953125 4.531249999999999  C 22.762586805555557 4.531249999999999  21.157769097222225 5.05208333333333  19.955078125 6.09375  C 18.75238715277778 7.135416666666666  18.151041666666664 8.606770833333332  18.151041666666664 10.507812499999998  L 18.151041666666664 13.847656249999998  L 13.723958333333332 13.847656249999998  L 13.723958333333332 18.378906249999996  L 18 18.378906249999996  L 18 30  L 6.375 30  C 4.618923611111112 30  3.1174045138888893 29.449869791666664  1.8704427083333335 28.349609375  C 0.6234809027777777 27.249348958333336  0 25.924479166666664  0 24.375  L 0 5.625  C 0 4.0755208333333295  0.6234809027777777 2.7506510416666643  1.8704427083333335 1.650390625000001  C 3.1174045138888893 0.5501302083333315  4.618923611111112 0  6.375 0  Z " fill-rule="nonzero" fill="#000000" stroke="none" transform="matrix(1 0 0 1 555 151 )" />
    </g>
  </defs>
  <g transform="matrix(1 0 0 1 -555 -151 )">
    <use xlink:href="#widget32" filter="url(#filter31)" />
    <use xlink:href="#widget32" />
  </g>
</svg>