<?xml version="1.0" encoding="utf-8"?>
<svg version="1.1" xmlns:xlink="http://www.w3.org/1999/xlink" width="37px" height="30px" xmlns="http://www.w3.org/2000/svg">
  <g transform="matrix(1 0 0 1 -442 -151 )">
    <path d="M 22.877232142857142 22.51674107142857  C 23.758184523809522 22.918526785714285  24.315662202380953 22.706473214285715  24.54966517857143 21.880580357142858  L 27.58482142857143 10.279017857142858  C 27.708705357142858 9.787946428571425  27.636439732142858 9.436383928571425  27.36802455357143 9.224330357142858  C 27.099609375 9.012276785714285  26.745163690476193 8.973214285714286  26.3046875 9.107142857142858  L 8.465401785714285 14.681919642857142  C 8.066220238095239 14.804687499999998  7.794363839285714 14.944196428571427  7.649832589285714 15.100446428571429  C 7.505301339285714 15.256696428571427  7.488095238095238 15.404575892857144  7.598214285714286 15.544084821428571  C 7.708333333333334 15.683593749999998  7.928571428571428 15.792410714285714  8.258928571428571 15.870535714285715  L 12.821986607142856 17.025669642857142  L 23.4140625 11.618303571428571  C 23.703125 11.46205357142857  23.9233630952381 11.428571428571425  24.07477678571429 11.517857142857142  C 24.171130952380953 11.573660714285714  24.143601190476193 11.65736607142857  23.9921875 11.768973214285714  L 15.423549107142856 18.046875  L 15.093191964285715 21.863839285714285  C 15.409784226190476 21.863839285714285  15.71949404761905 21.741071428571427  16.02232142857143 21.495535714285715  L 18.252232142857142 19.754464285714285  L 22.877232142857142 22.51674107142857  Z M 35.53404017857143 9.174107142857142  C 36.51134672619048 11.026785714285712  37 12.968749999999998  37 15  C 37 17.031249999999996  36.51134672619048 18.973214285714285  35.53404017857143 20.825892857142858  C 34.55673363095239 22.678571428571427  33.24218750000001 24.27455357142857  31.59040178571429 25.613839285714285  C 29.93861607142857 26.953125  27.9702380952381 28.018973214285715  25.685267857142858 28.81138392857143  C 23.40029761904762 29.603794642857142  21.005208333333336 30  18.5 30  C 15.994791666666668 30  13.599702380952381 29.603794642857142  11.314732142857144 28.81138392857143  C 9.029761904761905 28.018973214285715  7.061383928571428 26.953125  5.409598214285714 25.613839285714285  C 3.7578125 24.27455357142857  2.443266369047619 22.678571428571427  1.4659598214285714 20.825892857142858  C 0.4886532738095237 18.973214285714285  0 17.031249999999996  0 15  C 0 12.968749999999998  0.4886532738095237 11.026785714285712  1.4659598214285714 9.174107142857142  C 2.443266369047619 7.3214285714285685  3.7578125 5.725446428571429  5.409598214285714 4.386160714285713  C 7.061383928571428 3.046875  9.029761904761905 1.981026785714285  11.314732142857144 1.188616071428571  C 13.599702380952381 0.396205357142857  15.994791666666668 0  18.5 0  C 21.005208333333336 0  23.40029761904762 0.396205357142857  25.685267857142858 1.188616071428571  C 27.9702380952381 1.981026785714285  29.93861607142857 3.046875  31.59040178571429 4.386160714285713  C 33.24218750000001 5.725446428571429  34.55673363095239 7.3214285714285685  35.53404017857143 9.174107142857142  Z " fill-rule="nonzero" fill="#000000" stroke="none" transform="matrix(1 0 0 1 442 151 )" />
  </g>
</svg>